# xmcd
#
# Track frame offsets:
#	150
#	10264
#	18783
#	30109
#	42024
#	53285
#	62791
#	72695
#	82817
#	92674
#	104932
#	116929
#	125917
#	137028
#	148790
#	156673
#	166581
#	175661
#
# Disc length: 2490 seconds
#
# Revision: 1
# Processed by: cddbd v1.5.2PL0 Copyright (c) Steve Scherf et al.
# Submitted via: audiograbber 1.83.01
#
DISCID=f109b812
DTITLE=Johnny Cash - Country Roads CD 2
DYEAR=2007
DGENRE=Country
TTITLE0=Hey Porter
TTITLE1=Country Boy
TTITLE2=Oh Lonesome Me
TTITLE3=Thanks A Lot
TTITLE4=Don't Make Me Go
TTITLE5=Down The Street To 301
TTITLE6=Rock Island Line
TTITLE7=I Could Never Be Ashamed Of You
TTITLE8=Born To Lose
TTITLE9=Goodnight Irene
TTITLE10=Doin'Me Time
TTITLE11=Katy Too
TTITLE12=I Love You Because
TTITLE13=Wide Open Road
TTITLE14=Hey Good Lookin'
TTITLE15=Story Of A Broken Heart
TTITLE16=Life Goes On
TTITLE17=Mean Eyed Cat
EXTD=
EXTT0=
EXTT1=
EXTT2=
EXTT3=
EXTT4=
EXTT5=
EXTT6=
EXTT7=
EXTT8=
EXTT9=
EXTT10=
EXTT11=
EXTT12=
EXTT13=
EXTT14=
EXTT15=
EXTT16=
EXTT17=
PLAYORDER=
